PathFileType	4	(X/Y/Z)	C:/Users/beibeiliu/ov580/test_trc/User3\out2_training_dense_left.trc
DataRate	CameraRate	NumFrames	NumMarkers	Units	OrigDataRate	OrigDataStartFrame	OrigNumFrames
120	120	15	19	mm	120	188	500
Frame#	Time	ThumbCMC			ThumbMCP			ThumbIP			ThumbTip			IndexMCP			IndexPIP			IndexTip			MiddleMCP			MiddlePIP			MiddleTip			RingMCP			RingPIP			RingTip			PinkyMCP			PinkyPIP			PinkyTip			BackHand1			BackHand2			BackHand3	
		X0	Y0	Z0	X1	Y1	Z1	X2	Y2	Z2	X3	Y3	Z3	X4	Y4	Z4	X5	Y5	Z5	X6	Y6	Z6	X7	Y7	Z7	X8	Y8	Z8	X9	Y9	Z9	X10	Y10	Z10	X11	Y11	Z11	X12	Y12	Z12	X13	Y13	Z13	X14	Y14	Z14	X15	Y15	Z15	X16	Y16	Z16	X17	Y17	Z17	X18	Y18	Z18	
187	1.55833	-140.046	33.9357	12.9844	-128.109	45.5029	-9.04071	-117.391	60.5642	-34.4215	-109.774	69.5602	-50.0871	-92.2856	5.20884	-39.545	-68.3074	13.8875	-21.5501	-93.9216	18.1057	5.33606	-88.4171	-10.3771	-34.0979	-68.4302	-3.78758	-8.98978	-98.6544	4.2992	12.7905	-89.2069	-24.6299	-21.6854	-73.8364	-14.9405	2.27099	-99.207	-6.83877	20.6325	-92.4259	-43.0882	-7.45948	-79.5417	-28.0592	12.3712	-105.722	-18.1762	25.0726	-145.319	-25.4162	-6.29177	-161.425	-22.6239	22.2062	-155.27	4.20929	-1.17914	
188	1.56667	-146.939	34.2707	11.2039	-138.91	47.6919	-13.4197	-131.184	59.4298	-39.1145	-123.708	68.2369	-56.091	-93.6813	13.5931	-39.6674	-71.599	27.1597	-20.1613	-97.1832	24.9109	5.01137	-88.3938	-6.90735	-31.7386	-68.575	10.6914	-9.38082	-106.006	11.1715	11.6879	-83.5682	-19.2884	-18.6052	-70.6027	-5.38726	6.01318	-101.131	1.0839	19.9602	-83.1348	-30.4337	-6.19363	-74.0511	-17.4258	14.1072	-100.748	-14.3156	27.828	-139.229	-32.565	-4.81796	-158.381	-24.7452	25.384	-154.481	0.890978	-2.49374	
189	1.575	-153.022	29.205	10.2954	-146.692	38.5693	-14.1041	-144.492	54.2977	-39.6645	-141.446	64.6849	-58.9957	-100.696	18.2646	-40.9419	-78.9692	35.6083	-19.7429	-104.004	32.0879	2.65198	-88.6941	0.699503	-32.8134	-71.5146	17.5381	-9.04377	-107.055	10.1692	10.8006	-82.3784	-9.33821	-20.0993	-71.9986	4.10915	8.11011	-104.134	5.6016	20.4007	-78.4901	-24.2897	-5.30823	-74.8977	-6.12544	12.1601	-103.079	-7.63586	26.2366	-138.372	-31.3249	-1.22997	-154.873	-30.6387	26.5687	-155.379	-1.2506	0.489422	
190	1.58333	-162.005	23.3532	9.26732	-159.147	32.3959	-17.9433	-158.643	42.53	-44.6364	-159.404	51.5589	-61.4194	-107.991	15.5141	-41.5171	-87.7968	33.9444	-23.4443	-114.476	28.566	-0.184633	-92.409	2.88576	-34.3278	-81.6873	25.4798	-10.4875	-111.467	9.97473	8.62745	-84.7934	-11.7065	-18.1858	-76.7821	11.5532	1.3731	-105.814	4.85753	20.2628	-82.8945	-22.3659	-5.65349	-78.194	0.769347	11.145	-106.777	-4.64555	25.9081	-129.921	-37.4969	-0.979968	-147.252	-36.9457	26.2547	-160.051	-8.48298	3.45868	
191	1.59167	-167.867	10.8972	8.83399	-171.646	19.8869	-14.1612	-174.078	27.2673	-41.173	-174.066	32.9224	-63.6779	-117.646	12.0786	-44.4342	-103.204	36.2284	-27.1573	-123.493	24.3285	-3.51135	-101.768	1.57923	-37.4148	-90.2294	23.977	-16.7597	-121.475	6.09191	5.25336	-92.7342	-5.00304	-24.7696	-85.5809	13.7815	-1.0375	-112.022	4.26759	16.6326	-87.6304	-16.509	-9.14401	-83.0252	4.88435	6.98975	-110.588	-4.78811	21.6118	-131.636	-42.81	0.7046	-146.138	-42.3707	27.9362	-160.781	-20.8843	6.5621	
192	1.6	-181.088	2.15971	11.7296	-185.048	5.51725	-15.3014	-188.148	8.5442	-42.519	-196.328	16.0179	-63.9381	-131.698	6.20119	-48.766	-118.772	29.0102	-33.7226	-141.344	18.0204	-7.71436	-115.561	-4.68449	-39.7453	-105.734	21.1589	-21.5108	-130.149	3.01483	3.48078	-101.168	-8.72175	-25.557	-97.9491	15.1535	-6.17806	-125.38	4.07044	11.9926	-91.3271	-18.255	-10.6865	-91.3191	6.12022	3.21948	-114.381	-4.53128	23.6793	-135.495	-46.824	5.47077	-150.65	-45.1077	34.419	-167.373	-29.4583	8.24881	
193	1.60833	-192.366	-8.52164	16.8645	-193.849	-6.5054	-10.5065	-202.804	-6.98989	-40.3677	-214.362	-2.19106	-56.8169	-148.481	-2.85722	-50.4037	-140.627	23.3513	-37.1391	-151.851	9.26184	-7.77182	-129.733	-7.16363	-42.8714	-123.04	17.0025	-26.5634	-142.135	-3.6263	1.66796	-113.715	-12.3708	-28.7528	-114.158	12.3633	-11.807	-132.77	1.59773	11.1948	-107.35	-21.4399	-14.9207	-105.54	5.17035	-1.64131	-127.091	-8.81234	21.5471	-139.39	-52.6864	4.84212	-150.714	-54.2972	37.7928	-176.379	-38.3619	10.665	
194	1.61667	-200.147	-16.0939	18.7633	-210.321	-16.0844	-5.80063	-219.007	-16.526	-30.2344	-228.851	-18.2821	-51.8867	-167.849	-15.6487	-48.6261	-159.925	14.2606	-37.8995	-169.268	5.73084	-10.3275	-150.418	-18.3698	-44.0492	-143.269	10.6196	-29.0754	-155.667	-7.69893	0.760765	-132.899	-23.0537	-30.5181	-129.059	5.53081	-19.1106	-150.226	-4.68117	9.54339	-120.649	-26.1693	-17.5339	-125.873	0.58721	-6.10366	-141.661	-11.3607	16.985	-151.396	-57.8917	10.9671	-158.803	-53.2147	41.9055	-185.537	-45.5331	19.8873	
195	1.625	-212.422	-14.1725	28.4826	-223.166	-17.0256	4.24134	-239.669	-22.8872	-21.3766	-250.568	-20.8997	-37.8237	-193.032	-27.5415	-43.7403	-178.904	4.59976	-39.561	-184.641	-2.18821	-8.93275	-171.06	-29.0902	-43.4814	-160.507	-0.428723	-36.5635	-174.549	-13.5944	2.01189	-151.398	-32.3067	-30.1999	-146.153	-2.94755	-23.3078	-160.721	-5.71765	7.60881	-140.042	-31.555	-20.1082	-142.416	-6.87648	-13.2373	-158.069	-15.8002	14.2842	-167.824	-62.2829	15.2708	-170.296	-53.9364	44.226	-198.635	-48.4501	24.0758	
196	1.63333	-222.117	-11.0546	34.9624	-238.23	-12.2029	15.0459	-259.625	-15.2109	-5.96658	-277.383	-18.7255	-24.4761	-218.641	-33.1563	-35.7587	-201.472	-6.6909	-40.0493	-200.158	-6.96096	-5.15386	-197.417	-40.849	-35.483	-182.011	-9.83194	-32.9985	-193.685	-15.2712	6.28101	-177.378	-41.5233	-29.1512	-171.413	-10.0739	-24.0593	-179.344	-9.64651	7.34215	-164.104	-43.0941	-18.4756	-161.268	-15.7735	-13.8689	-169.839	-19.1536	16.1843	-185.963	-64.5278	24.1348	-182.663	-53.7351	54.2385	-216.759	-41.9036	38.4785	
197	1.64167	-235.894	-0.369338	43.6251	-251.063	-0.529989	25.4663	-276.275	-3.62225	6.93259	-295.159	-0.386963	-5.74672	-244.034	-31.2812	-25.5087	-221.579	-8.54169	-30.879	-219.295	-5.4866	-0.0232184	-224.114	-45.0139	-25.626	-209.439	-16.1502	-31.5975	-209.568	-15.3826	11.7118	-207.125	-48.4533	-20.9533	-192.95	-21.0087	-22.6803	-192.331	-16.0221	10.326	-191.828	-52.7273	-13.4696	-181.426	-27.1477	-12.4546	-183.659	-20.8215	16.2287	-212.035	-62.1101	34.2751	-197.697	-46.85	62.9763	-231.099	-35.8384	47.1932	
198	1.65	-238.782	13.6749	50.8311	-258.296	12.278	32.0586	-282.339	18.9687	19.3344	-303.667	22.1616	6.68083	-264.649	-22.9192	-11.1933	-241.471	-2.96473	-25.6444	-230.965	-2.48666	6.44142	-248.256	-38.5796	-18.6754	-223.738	-18.3928	-23.4153	-222.623	-13.409	16.0998	-231.771	-50.0137	-11.1827	-208.806	-27.717	-16.5303	-207.537	-16.4275	12.8626	-218.269	-58.3212	-4.70922	-200.834	-35.3636	-10.8538	-196.544	-26.1356	17.5352	-234.852	-57.5101	43.06	-215.461	-42.3957	67.7587	-243.295	-22.3632	59.1841	
199	1.65833	-238.175	17.6316	51.1782	-260.681	25.2346	36.7359	-285.892	38.2366	24.2678	-299.178	46.2368	14.3178	-276.464	-9.99911	-6.58774	-250.978	1.8221	-20.2109	-239.619	6.22098	11.744	-269.104	-25.1177	-10.0446	-242.172	-15.0208	-20.9134	-229.981	-11.2894	16.2894	-254.531	-39.8784	-4.3958	-228.864	-25.905	-13.7111	-219.415	-17.709	18.3364	-240.63	-52.6907	-3.52963	-222.404	-36.8116	-8.63999	-210.191	-30.5882	18.8621	-253.191	-42.5098	50.3608	-227.919	-37.4903	73.3067	-254.939	-7.69477	63.1963	
200	1.66667	-234.378	26.534	52.5765	-253.909	38.8583	38.7477	-273.693	57.7853	27.4831	-288.984	66.1118	16.1273	-281.476	6.74495	-3.00738	-255.796	13.4023	-18.6857	-240.522	15.1734	13.4917	-278.635	-13.9627	-1.56265	-247.674	-3.27803	-17.9694	-236.682	-6.7485	18.3258	-268.683	-26.0895	2.15048	-240.788	-22.1823	-12.8847	-227.314	-12.5743	18.7016	-259.282	-42.4919	4.67793	-235.625	-32.8872	-6.31775	-220.084	-28.3651	22.0067	-259.617	-32.433	56.717	-234.612	-32.3228	76.1245	-250.491	-0.261878	68.8307	
201	1.675	-224.968	33.0674	51.0794	-235.925	51.365	38.2615	-252.486	69.2647	26.8658	-265.088	83.4621	14.3643	-278.082	23.4527	1.38932	-250.527	20.7106	-17.8101	-236.217	19.8299	9.24137	-280.07	7.17365	-2.05187	-248.728	3.69996	-16.7427	-236.227	0.264154	18.4187	-273.396	-15.4963	-1.05839	-243.333	-16.8384	-10.2389	-230.579	-11.6762	21.5624	-268.879	-30.9029	3.49431	-240.33	-27.639	-5.79067	-228.979	-26.2432	20.6785	-268.119	-18.4631	55.7981	-238.337	-21.995	76.9069	-246.884	11.5207	69.251	
